<svg width="70" height="70" viewBox="0 0 70 70" fill="none" xmlns="http://www.w3.org/2000/svg">
<circle cx="35" cy="35" r="35" fill="#DCDCDC"/>
<path d="M50.7149 26.9844C50.6146 26.8378 50.4815 26.7182 50.3269 26.6356C50.1723 26.553 50.0006 26.5098 49.8263 26.5097H26.6137L24.8566 20.2772C24.1675 17.823 22.5301 17.5581 21.8586 17.5581H17.1735C16.573 17.5581 16.0874 18.0581 16.0874 18.6752C16.0874 19.2923 16.5735 19.7923 17.1735 19.7923H21.858C22.0062 19.7923 22.4585 19.7923 22.7669 20.8886L28.8115 43.7379C28.9428 44.22 29.3699 44.5529 29.8571 44.5529H44.6217C45.08 44.5529 45.489 44.2576 45.6438 43.8138L50.8479 28.0048C50.9676 27.6622 50.9179 27.2808 50.715 26.9844H50.7149ZM43.8573 42.3193H30.6815L27.2242 28.7445H48.2821L43.8573 42.3193ZM41.7032 46.8171C40.1928 46.8171 38.9688 48.0759 38.9688 49.6296C38.9688 51.1832 40.1928 52.4421 41.7032 52.4421C43.2137 52.4421 44.4376 51.1832 44.4376 49.6296C44.4376 48.0759 43.2137 46.8171 41.7032 46.8171ZM31.8595 46.8171C30.349 46.8171 29.1251 48.0759 29.1251 49.6296C29.1251 51.1832 30.349 52.4421 31.8595 52.4421C33.3699 52.4421 34.5938 51.1832 34.5938 49.6296C34.5938 48.0759 33.3699 46.8171 31.8595 46.8171Z" fill="#28414F"/>
</svg>
