<svg width="25" height="25" viewBox="0 0 25 25" fill="none" xmlns="http://www.w3.org/2000/svg">
<g clip-path="url(#clip0_13_22)">
<path d="M12.5 24.2188C18.9721 24.2188 24.2188 18.9721 24.2188 12.5C24.2188 6.02791 18.9721 0.78125 12.5 0.78125C6.02791 0.78125 0.78125 6.02791 0.78125 12.5C0.78125 18.9721 6.02791 24.2188 12.5 24.2188Z" fill="#ED4C5C"/>
<path d="M16.1328 15.2344L16.1719 13.125L14.0625 12.5L16.1719 11.875L16.1328 9.76562L17.4219 11.4453L19.5312 10.8203L18.2422 12.5L19.5312 14.1797L17.4219 13.5547L16.1328 15.2344Z" fill="white"/>
<path d="M12.9688 17.1875C10.3906 17.1875 8.32031 15.0781 8.32031 12.5C8.32031 9.92188 10.3906 7.8125 12.9688 7.8125C13.9453 7.8125 14.8438 8.125 15.625 8.63281C14.5703 7.42188 13.0078 6.64062 11.25 6.64062C8.04687 6.64062 5.46875 9.25781 5.46875 12.5C5.46875 15.7422 8.04687 18.3594 11.25 18.3594C13.0078 18.3594 14.5703 17.5781 15.625 16.3672C14.8828 16.875 13.9844 17.1875 12.9688 17.1875Z" fill="white"/>
</g>
<defs>
<clipPath id="clip0_13_22">
<rect width="25" height="25" fill="white"/>
</clipPath>
</defs>
</svg>
